<svg width="140" height="24" viewBox="0 0 140 24" fill="none" xmlns="http://www.w3.org/2000/svg">
<path d="M23.25 9.45H14.6625L12 1.125L9.3375 9.45H0.75L7.6875 14.5875L5.0625 22.875L12 17.7375L18.9375 22.875L16.275 14.55L23.25 9.45Z" fill="#EEDE4D"/>
<path d="M52.25 9.45H43.6625L41 1.125L38.3375 9.45H29.75L36.6875 14.5875L34.0625 22.875L41 17.7375L47.9375 22.875L45.275 14.55L52.25 9.45Z" fill="#EEDE4D"/>
<path d="M81.25 9.45H72.6625L70 1.125L67.3375 9.45H58.75L65.6875 14.5875L63.0625 22.875L70 17.7375L76.9375 22.875L74.275 14.55L81.25 9.45Z" fill="#EEDE4D"/>
<path d="M110.25 9.45H101.662L99 1.125L96.3375 9.45H87.75L94.6875 14.5875L92.0625 22.875L99 17.7375L105.938 22.875L103.275 14.55L110.25 9.45Z" fill="#EEDE4D"/>
<path d="M139.25 9.45H130.662L128 1.125L125.337 9.45H116.75L123.688 14.5875L121.062 22.875L128 17.7375L134.938 22.875L132.275 14.55L139.25 9.45Z" fill="#EEDE4D"/>
</svg>
